<?xml version="1.0" standalone="no"?>
<!DOCTYPE svg PUBLIC "-//W3C//DTD SVG 20010904//EN"
 "http://www.w3.org/TR/2001/REC-SVG-20010904/DTD/svg10.dtd">
<svg version="1.0" xmlns="http://www.w3.org/2000/svg"
 width="131.000000pt" height="131.000000pt" viewBox="0 0 131.000000 131.000000"
 preserveAspectRatio="xMidYMid meet">
<metadata>
Created by potrace 1.14, written by Peter Selinger 2001-2017
</metadata>
<g transform="translate(0.000000,131.000000) scale(0.100000,-0.100000)"
fill="#000000" stroke="none">
<path d="M531 1255 c-51 -31 -119 -70 -150 -88 -46 -26 -226 -130 -299 -172
-37 -22 -59 -41 -70 -62 -9 -15 -12 -123 -12 -363 0 -283 3 -346 15 -370 10
-19 43 -45 96 -74 83 -47 107 -54 125 -36 6 6 39 25 73 44 l63 34 -31 23 c-37
27 -91 104 -91 130 0 18 -19 29 -50 29 -50 0 -92 119 -70 199 10 38 48 85 69
87 6 1 20 2 30 3 12 1 21 11 26 29 8 32 44 97 74 131 15 17 21 38 22 75 1 110
10 171 25 183 36 27 51 -4 57 -112 1 -27 5 -52 7 -54 3 -1 31 4 62 14 117 33
276 22 374 -27 80 -40 161 -134 179 -210 4 -16 13 -29 21 -29 8 -1 19 -3 24
-4 6 -1 16 -3 24 -4 25 -2 57 -66 60 -122 6 -93 -27 -153 -88 -162 -25 -3 -32
-11 -44 -45 -13 -40 -82 -122 -102 -122 -6 0 -10 -4 -10 -10 0 -5 5 -10 10
-10 6 0 40 -18 76 -40 36 -22 73 -40 81 -40 29 0 175 94 189 122 11 22 14 96
14 368 0 297 -2 346 -16 369 -22 37 -584 363 -634 368 -28 3 -53 -7 -129 -52z"/>
<path d="M525 753 c-142 -43 -200 -147 -183 -325 10 -100 29 -136 90 -166 44
-22 60 -24 210 -24 182 -1 237 9 278 51 33 32 50 102 50 200 0 127 -44 201
-148 249 -70 32 -218 40 -297 15z m29 -105 c13 -52 -63 -136 -102 -112 -9 6
-19 19 -20 28 -13 66 105 147 122 84z"/>
<path d="M613 88 c-33 -16 -30 -56 5 -69 38 -15 96 0 100 26 1 11 -2 26 -6 33
-12 18 -72 24 -99 10z"/>
<path d="M464 65 c-13 -32 32 -52 66 -28 17 12 19 18 9 29 -15 18 -68 18 -75
-1z"/>
<path d="M771 66 c-12 -14 -2 -27 31 -39 23 -8 53 16 45 37 -8 20 -60 22 -76
2z"/>
</g>
</svg>
